<?xml version="1.0" encoding="UTF-8"?>
<svg xmlns="http://www.w3.org/2000/svg" xmlns:xlink="http://www.w3.org/1999/xlink" width="400px" height="200px" viewBox="0 0 400 200" version="1.1">
<g id="surface1">
<path style=" stroke:none;fill-rule:nonzero;fill:rgb(96.078431%,96.078431%,96.078431%);fill-opacity:1;" d="M 75.390625 176.601562 L 75.390625 161.992188 L 43.085938 161.992188 L 43.085938 184.296875 L 75.390625 184.296875 Z M 75.390625 176.601562 "/>
<path style=" stroke:none;fill-rule:nonzero;fill:rgb(96.078431%,96.078431%,96.078431%);fill-opacity:1;" d="M 2.34375 147.34375 L 2.34375 184.296875 L 34.609375 184.296875 L 34.609375 132.734375 L 2.34375 132.734375 Z M 2.34375 147.34375 "/>
<path style=" stroke:none;fill-rule:nonzero;fill:rgb(96.078431%,96.078431%,96.078431%);fill-opacity:1;" d="M 34.609375 74.21875 L 34.609375 59.570312 L 2.34375 59.570312 L 2.34375 81.523438 L 34.609375 81.523438 Z M 34.609375 74.21875 "/>
<path style=" stroke:none;fill-rule:nonzero;fill:rgb(96.078431%,96.078431%,96.078431%);fill-opacity:1;" d="M 34.609375 118.085938 L 34.609375 88.828125 L 2.34375 88.828125 L 2.34375 125.429688 L 34.609375 125.429688 Z M 34.609375 118.085938 "/>
<path style=" stroke:none;fill-rule:nonzero;fill:rgb(96.078431%,96.078431%,96.078431%);fill-opacity:1;" d="M 75.390625 118.085938 L 75.390625 88.828125 L 43.085938 88.828125 L 43.085938 125.429688 L 75.390625 125.429688 Z M 75.390625 118.085938 "/>
<path style=" stroke:none;fill-rule:nonzero;fill:rgb(96.078431%,96.078431%,96.078431%);fill-opacity:1;" d="M 75.390625 147.34375 L 75.390625 132.734375 L 43.085938 132.734375 L 43.085938 154.6875 L 75.390625 154.6875 Z M 75.390625 147.34375 "/>
<path style=" stroke:none;fill-rule:nonzero;fill:rgb(96.078431%,96.078431%,96.078431%);fill-opacity:1;" d="M 75.390625 74.21875 L 75.390625 44.960938 L 43.085938 44.960938 L 43.085938 81.523438 L 75.390625 81.523438 Z M 75.390625 74.21875 "/>
<path style=" stroke:none;fill-rule:nonzero;fill:rgb(96.078431%,96.078431%,96.078431%);fill-opacity:1;" d="M 75.390625 30.3125 L 75.390625 15.703125 L 43.085938 15.703125 L 43.085938 37.65625 L 75.390625 37.65625 Z M 75.390625 30.3125 "/>
<path style=" stroke:none;fill-rule:nonzero;fill:rgb(96.078431%,96.078431%,96.078431%);fill-opacity:1;" d="M 83.867188 132.734375 L 116.132812 132.734375 L 116.132812 140.039062 L 83.867188 140.039062 Z M 83.867188 132.734375 "/>
<path style=" stroke:none;fill-rule:nonzero;fill:rgb(96.078431%,96.078431%,96.078431%);fill-opacity:1;" d="M 116.132812 176.601562 L 116.132812 147.34375 L 83.867188 147.34375 L 83.867188 184.296875 L 116.132812 184.296875 Z M 116.132812 176.601562 "/>
<path style=" stroke:none;fill-rule:nonzero;fill:rgb(96.078431%,96.078431%,96.078431%);fill-opacity:1;" d="M 124.609375 88.828125 L 156.875 88.828125 L 156.875 96.132812 L 124.609375 96.132812 Z M 124.609375 88.828125 "/>
<path style=" stroke:none;fill-rule:nonzero;fill:rgb(96.078431%,96.078431%,96.078431%);fill-opacity:1;" d="M 156.914062 176.601562 L 156.914062 132.734375 L 124.609375 132.734375 L 124.609375 184.296875 L 156.914062 184.296875 Z M 156.914062 176.601562 "/>
<path style=" stroke:none;fill-rule:nonzero;fill:rgb(96.078431%,96.078431%,96.078431%);fill-opacity:1;" d="M 156.914062 118.085938 L 156.914062 103.476562 L 124.609375 103.476562 L 124.609375 125.429688 L 156.914062 125.429688 Z M 156.914062 118.085938 "/>
<path style=" stroke:none;fill-rule:nonzero;fill:rgb(96.078431%,96.078431%,96.078431%);fill-opacity:1;" d="M 197.65625 88.828125 L 197.65625 74.21875 L 165.390625 74.21875 L 165.390625 96.171875 L 197.65625 96.171875 Z M 197.65625 88.828125 "/>
<path style=" stroke:none;fill-rule:nonzero;fill:rgb(96.078431%,96.078431%,96.078431%);fill-opacity:1;" d="M 165.390625 30.3125 L 197.65625 30.3125 L 197.65625 37.617188 L 165.390625 37.617188 Z M 165.390625 30.3125 "/>
<path style=" stroke:none;fill-rule:nonzero;fill:rgb(96.078431%,96.078431%,96.078431%);fill-opacity:1;" d="M 197.65625 59.570312 L 197.65625 44.960938 L 165.390625 44.960938 L 165.390625 66.914062 L 197.65625 66.914062 Z M 197.65625 59.570312 "/>
<path style=" stroke:none;fill-rule:nonzero;fill:rgb(96.078431%,96.078431%,96.078431%);fill-opacity:1;" d="M 197.65625 132.734375 L 197.65625 103.476562 L 165.390625 103.476562 L 165.390625 140.039062 L 197.65625 140.039062 Z M 197.65625 132.734375 "/>
<path style=" stroke:none;fill-rule:nonzero;fill:rgb(96.078431%,96.078431%,96.078431%);fill-opacity:1;" d="M 197.65625 176.601562 L 197.65625 147.34375 L 165.390625 147.34375 L 165.390625 184.296875 L 197.65625 184.296875 Z M 197.65625 176.601562 "/>
<path style=" stroke:none;fill-rule:nonzero;fill:rgb(96.078431%,96.078431%,96.078431%);fill-opacity:1;" d="M 280.132812 175.792969 L 280.132812 161.183594 L 247.828125 161.183594 L 247.828125 183.488281 L 280.132812 183.488281 Z M 280.132812 175.792969 "/>
<path style=" stroke:none;fill-rule:nonzero;fill:rgb(96.078431%,96.078431%,96.078431%);fill-opacity:1;" d="M 207.085938 146.535156 L 207.085938 183.488281 L 239.351562 183.488281 L 239.351562 131.925781 L 207.085938 131.925781 Z M 207.085938 146.535156 "/>
<path style=" stroke:none;fill-rule:nonzero;fill:rgb(96.078431%,96.078431%,96.078431%);fill-opacity:1;" d="M 239.351562 73.410156 L 239.351562 58.761719 L 207.085938 58.761719 L 207.085938 80.714844 L 239.351562 80.714844 Z M 239.351562 73.410156 "/>
<path style=" stroke:none;fill-rule:nonzero;fill:rgb(96.078431%,96.078431%,96.078431%);fill-opacity:1;" d="M 239.351562 117.277344 L 239.351562 88.019531 L 207.085938 88.019531 L 207.085938 124.621094 L 239.351562 124.621094 Z M 239.351562 117.277344 "/>
<path style=" stroke:none;fill-rule:nonzero;fill:rgb(96.078431%,96.078431%,96.078431%);fill-opacity:1;" d="M 280.132812 117.277344 L 280.132812 88.019531 L 247.828125 88.019531 L 247.828125 124.621094 L 280.132812 124.621094 Z M 280.132812 117.277344 "/>
<path style=" stroke:none;fill-rule:nonzero;fill:rgb(96.078431%,96.078431%,96.078431%);fill-opacity:1;" d="M 280.132812 146.535156 L 280.132812 131.925781 L 247.828125 131.925781 L 247.828125 153.878906 L 280.132812 153.878906 Z M 280.132812 146.535156 "/>
<path style=" stroke:none;fill-rule:nonzero;fill:rgb(96.078431%,96.078431%,96.078431%);fill-opacity:1;" d="M 280.132812 73.410156 L 280.132812 44.152344 L 247.828125 44.152344 L 247.828125 80.714844 L 280.132812 80.714844 Z M 280.132812 73.410156 "/>
<path style=" stroke:none;fill-rule:nonzero;fill:rgb(96.078431%,96.078431%,96.078431%);fill-opacity:1;" d="M 280.132812 29.503906 L 280.132812 14.894531 L 247.828125 14.894531 L 247.828125 36.847656 L 280.132812 36.847656 Z M 280.132812 29.503906 "/>
<path style=" stroke:none;fill-rule:nonzero;fill:rgb(96.078431%,96.078431%,96.078431%);fill-opacity:1;" d="M 288.609375 131.925781 L 320.875 131.925781 L 320.875 139.230469 L 288.609375 139.230469 Z M 288.609375 131.925781 "/>
<path style=" stroke:none;fill-rule:nonzero;fill:rgb(96.078431%,96.078431%,96.078431%);fill-opacity:1;" d="M 320.875 175.792969 L 320.875 146.535156 L 288.609375 146.535156 L 288.609375 183.488281 L 320.875 183.488281 Z M 320.875 175.792969 "/>
<path style=" stroke:none;fill-rule:nonzero;fill:rgb(96.078431%,96.078431%,96.078431%);fill-opacity:1;" d="M 329.351562 88.019531 L 361.617188 88.019531 L 361.617188 95.324219 L 329.351562 95.324219 Z M 329.351562 88.019531 "/>
<path style=" stroke:none;fill-rule:nonzero;fill:rgb(96.078431%,96.078431%,96.078431%);fill-opacity:1;" d="M 361.65625 175.792969 L 361.65625 131.925781 L 329.351562 131.925781 L 329.351562 183.488281 L 361.65625 183.488281 Z M 361.65625 175.792969 "/>
<path style=" stroke:none;fill-rule:nonzero;fill:rgb(96.078431%,96.078431%,96.078431%);fill-opacity:1;" d="M 361.65625 117.277344 L 361.65625 102.667969 L 329.351562 102.667969 L 329.351562 124.621094 L 361.65625 124.621094 Z M 361.65625 117.277344 "/>
<path style=" stroke:none;fill-rule:nonzero;fill:rgb(96.078431%,96.078431%,96.078431%);fill-opacity:1;" d="M 402.398438 88.019531 L 402.398438 73.410156 L 370.132812 73.410156 L 370.132812 95.363281 L 402.398438 95.363281 Z M 402.398438 88.019531 "/>
<path style=" stroke:none;fill-rule:nonzero;fill:rgb(96.078431%,96.078431%,96.078431%);fill-opacity:1;" d="M 370.132812 29.503906 L 402.398438 29.503906 L 402.398438 36.808594 L 370.132812 36.808594 Z M 370.132812 29.503906 "/>
<path style=" stroke:none;fill-rule:nonzero;fill:rgb(96.078431%,96.078431%,96.078431%);fill-opacity:1;" d="M 402.398438 58.761719 L 402.398438 44.152344 L 370.132812 44.152344 L 370.132812 66.105469 L 402.398438 66.105469 Z M 402.398438 58.761719 "/>
<path style=" stroke:none;fill-rule:nonzero;fill:rgb(96.078431%,96.078431%,96.078431%);fill-opacity:1;" d="M 402.398438 131.925781 L 402.398438 102.667969 L 370.132812 102.667969 L 370.132812 139.230469 L 402.398438 139.230469 Z M 402.398438 131.925781 "/>
<path style=" stroke:none;fill-rule:nonzero;fill:rgb(96.078431%,96.078431%,96.078431%);fill-opacity:1;" d="M 402.398438 175.792969 L 402.398438 146.535156 L 370.132812 146.535156 L 370.132812 183.488281 L 402.398438 183.488281 Z M 402.398438 175.792969 "/>
</g>
</svg>
